<mxfile host="65bd71144e">
    <diagram id="gDUQ3rRAA1HquXXb0f7x" name="Page-1">
        <mxGraphModel dx="839" dy="619" grid="1" gridSize="10" guides="1" tooltips="1" connect="1" arrows="1" fold="1" page="1" pageScale="1" pageWidth="827" pageHeight="1169" math="0" shadow="0">
            <root>
                <mxCell id="0"/>
                <mxCell id="1" parent="0"/>
                <mxCell id="23" style="edgeStyle=none;html=1;entryX=0.5;entryY=0;entryDx=0;entryDy=0;fontSize=14;exitX=0.25;exitY=1;exitDx=0;exitDy=0;" edge="1" parent="1" source="19" target="20">
                    <mxGeometry relative="1" as="geometry"/>
                </mxCell>
                <mxCell id="24" style="edgeStyle=none;html=1;entryX=0.5;entryY=0;entryDx=0;entryDy=0;fontSize=14;" edge="1" parent="1" target="21">
                    <mxGeometry relative="1" as="geometry">
                        <mxPoint x="480" y="140" as="sourcePoint"/>
                    </mxGeometry>
                </mxCell>
                <mxCell id="19" value="&lt;font style=&quot;font-size: 14px;&quot;&gt;animals&lt;br&gt;&lt;/font&gt;" style="swimlane;whiteSpace=wrap;html=1;startSize=40;" vertex="1" parent="1">
                    <mxGeometry x="320" y="40" width="200" height="100" as="geometry"/>
                </mxCell>
                <mxCell id="33" style="edgeStyle=none;html=1;fontSize=14;" edge="1" parent="1">
                    <mxGeometry relative="1" as="geometry">
                        <mxPoint x="160" y="230" as="sourcePoint"/>
                        <mxPoint x="160" y="680" as="targetPoint"/>
                        <Array as="points">
                            <mxPoint x="30" y="230"/>
                            <mxPoint x="30" y="680"/>
                        </Array>
                    </mxGeometry>
                </mxCell>
                <mxCell id="34" style="edgeStyle=none;html=1;entryX=0;entryY=0.5;entryDx=0;entryDy=0;fontSize=14;" edge="1" parent="1" target="28">
                    <mxGeometry relative="1" as="geometry">
                        <mxPoint x="160" y="260" as="sourcePoint"/>
                        <Array as="points">
                            <mxPoint x="80" y="260"/>
                            <mxPoint x="80" y="540"/>
                        </Array>
                    </mxGeometry>
                </mxCell>
                <mxCell id="35" style="edgeStyle=none;html=1;exitX=0.5;exitY=1;exitDx=0;exitDy=0;entryX=0.5;entryY=0;entryDx=0;entryDy=0;fontSize=14;" edge="1" parent="1" source="20" target="25">
                    <mxGeometry relative="1" as="geometry"/>
                </mxCell>
                <mxCell id="20" value="home_animals" style="swimlane;whiteSpace=wrap;html=1;fontSize=14;" vertex="1" parent="1">
                    <mxGeometry x="160" y="200" width="200" height="100" as="geometry"/>
                </mxCell>
                <mxCell id="36" style="edgeStyle=none;html=1;entryX=0.5;entryY=0;entryDx=0;entryDy=0;fontSize=14;" edge="1" parent="1" source="21" target="27">
                    <mxGeometry relative="1" as="geometry"/>
                </mxCell>
                <mxCell id="37" style="edgeStyle=none;html=1;entryX=1;entryY=0.5;entryDx=0;entryDy=0;fontSize=14;" edge="1" parent="1" target="29">
                    <mxGeometry relative="1" as="geometry">
                        <mxPoint x="680" y="260" as="sourcePoint"/>
                        <Array as="points">
                            <mxPoint x="760" y="260"/>
                            <mxPoint x="760" y="540"/>
                        </Array>
                    </mxGeometry>
                </mxCell>
                <mxCell id="38" style="edgeStyle=none;html=1;fontSize=14;exitX=1;exitY=0.25;exitDx=0;exitDy=0;" edge="1" parent="1" source="21">
                    <mxGeometry relative="1" as="geometry">
                        <mxPoint x="680" y="680" as="targetPoint"/>
                        <Array as="points">
                            <mxPoint x="800" y="225"/>
                            <mxPoint x="800" y="680"/>
                        </Array>
                    </mxGeometry>
                </mxCell>
                <mxCell id="21" value="pack_animals" style="swimlane;whiteSpace=wrap;html=1;fontSize=14;" vertex="1" parent="1">
                    <mxGeometry x="480" y="200" width="200" height="100" as="geometry"/>
                </mxCell>
                <mxCell id="25" value="dogs" style="swimlane;whiteSpace=wrap;html=1;fontSize=14;" vertex="1" parent="1">
                    <mxGeometry x="160" y="360" width="200" height="80" as="geometry"/>
                </mxCell>
                <mxCell id="27" value="horses" style="swimlane;whiteSpace=wrap;html=1;fontSize=14;" vertex="1" parent="1">
                    <mxGeometry x="480" y="360" width="200" height="80" as="geometry"/>
                </mxCell>
                <mxCell id="28" value="cats" style="swimlane;whiteSpace=wrap;html=1;fontSize=14;" vertex="1" parent="1">
                    <mxGeometry x="160" y="500" width="200" height="80" as="geometry"/>
                </mxCell>
                <mxCell id="29" value="camels" style="swimlane;whiteSpace=wrap;html=1;fontSize=14;" vertex="1" parent="1">
                    <mxGeometry x="480" y="500" width="200" height="80" as="geometry"/>
                </mxCell>
                <mxCell id="30" value="hamsters" style="swimlane;whiteSpace=wrap;html=1;fontSize=14;startSize=23;" vertex="1" parent="1">
                    <mxGeometry x="160" y="630" width="200" height="90" as="geometry"/>
                </mxCell>
                <mxCell id="31" value="donkeys" style="swimlane;whiteSpace=wrap;html=1;fontSize=14;" vertex="1" parent="1">
                    <mxGeometry x="480" y="630" width="200" height="90" as="geometry"/>
                </mxCell>
            </root>
        </mxGraphModel>
    </diagram>
</mxfile>